<svg xmlns="http://www.w3.org/2000/svg" viewBox="0 0 425.76 53.92"><defs><style>.cls-1,.cls-2{fill:#5d4540;}.cls-1{fill-rule:evenodd;}</style></defs><g id="Layer_2" data-name="Layer 2"><g id="Layer_1-2" data-name="Layer 1"><path class="cls-1" d="M223.42.26V52.94c-1.08.46-9.14.34-10,0V.31A46,46,0,0,1,223.42.26Z"/><polygon class="cls-1" points="386.51 34.65 386.51 8.87 389.09 8.87 389.09 53.91 371.17 27.18 371.17 52.89 368.59 52.89 368.59 7.6 386.51 34.65"/><path class="cls-1" d="M230.33,8.85h22.81v1.84h-6.89s.09,28.21,0,42.23c-.7.6-8.51.41-9.16,0,.09-14.21,0-42.25,0-42.25h-6.76Z"/><path class="cls-1" d="M289.94,53h20.67V51.12H299.12s.1-28.21,0-42.22c-.7-.61-8.53-.43-9.18,0Z"/><path class="cls-1" d="M42.32,52.93V8.79c1.11-.41,7.69-.41,8.77.15L51,53C50,53.34,42.92,53.34,42.32,52.93Z"/><path class="cls-1" d="M317.72,52.93V8.79c1.12-.41,7.63-.41,8.7.15V53C325.48,53.34,318.32,53.34,317.72,52.93Z"/><path class="cls-1" d="M94.9,8.94h24.49L103,51.17h14.29V53H93.29l16-42.26H94.9Z"/><path class="cls-1" d="M126.18,8.94h24.49L134.23,51.17h14.3V53h-24l16-42.26H126.18Z"/><path class="cls-1" d="M396.18,53.24h-.83a41.47,41.47,0,0,0,4.26-9.83h-4.16v-2.1h4.88c3.16-10.75,10.94-34.1,10.94-34.1L425.76,53h-9.05l-2.81-9.6h-12C401.26,45.32,399.83,51.79,396.18,53.24Zm6.45-11.93h10.6l-5.29-17.69S404.72,34.19,402.63,41.31Z"/><path class="cls-1" d="M333,53.24h-.82a41.9,41.9,0,0,0,4.25-9.83h-4.17v-2.1h4.89c3.16-10.75,10.94-34.1,10.94-34.1L362.56,53h-9.05l-2.81-9.6h-12C338.06,45.32,336.64,51.79,333,53.24Zm6.45-11.93H350l-5.3-17.69S341.52,34.19,339.43,41.31Z"/><path class="cls-1" d="M254.46,53.24h-.84a41.08,41.08,0,0,0,4.25-9.83h-4.16v-2.1h4.89c3.16-10.75,10.94-34.1,10.94-34.1L284,53h-9l-2.81-9.6h-12C259.52,45.32,258.1,51.79,254.46,53.24Zm6.43-11.93h10.6L266.2,23.62S263,34.19,260.89,41.31Z"/><path class="cls-1" d="M154.18,53.24h-.83a41.9,41.9,0,0,0,4.25-9.83h-4.16v-2.1h4.89c3.15-10.75,10.93-34.1,10.93-34.1L183.75,53h-9l-2.82-9.6h-12C159.25,45.32,157.82,51.79,154.18,53.24Zm6.44-11.93h10.6l-5.29-17.69S162.71,34.19,160.62,41.31Z"/><path class="cls-1" d="M58.81,53.24H58a41.47,41.47,0,0,0,4.26-9.83H58.07v-2.1H63C66.12,30.56,73.9,7.21,73.9,7.21L88.38,53h-9l-2.82-9.6h-12C63.88,45.32,62.46,51.79,58.81,53.24Zm6.44-11.93h10.6L70.56,23.62S67.35,34.19,65.25,41.31Z"/><path class="cls-2" d="M29.68,5.56A21.08,21.08,0,0,0,17.84.47,62.43,62.43,0,0,0,6.57.11a8.83,8.83,0,0,0-1.78.2v36L0,36.33v2.12l4.78,0V52.94c.85.34,8.63.46,9.67,0V38.36c6.23,0,11.45-1.83,15.14-5.12a18.1,18.1,0,0,0,5.8-13.93A18.19,18.19,0,0,0,29.68,5.56ZM14.46,36.26V2.36c11.91.16,18.77,7,18.83,17C33.22,29.71,26.2,36.09,14.46,36.26Z"/></g></g></svg>