<svg xmlns="http://www.w3.org/2000/svg" viewBox="0 0 425.76 189.44"><defs><style>.cls-1,.cls-2{fill:#5d4540;}.cls-1{fill-rule:evenodd;}</style></defs><g id="Layer_2" data-name="Layer 2"><g id="Layer_1-2" data-name="Layer 1"><path class="cls-1" d="M223.42,135.79v52.68c-1.08.46-9.14.34-10,0V135.84A45.41,45.41,0,0,1,223.42,135.79Z"/><polygon class="cls-1" points="386.51 170.18 386.51 144.39 389.09 144.39 389.09 189.44 371.17 162.7 371.17 188.42 368.59 188.42 368.59 143.13 386.51 170.18"/><path class="cls-1" d="M230.33,144.38h22.81v1.84h-6.89s.09,28.21,0,42.23c-.7.6-8.51.41-9.16,0,.09-14.21,0-42.25,0-42.25h-6.76Z"/><path class="cls-1" d="M289.94,188.48h20.67v-1.83H299.12s.1-28.21,0-42.22c-.7-.61-8.53-.43-9.18,0Z"/><path class="cls-1" d="M42.32,188.46V144.32c1.11-.41,7.69-.41,8.77.15L51,188.52C50,188.87,42.92,188.87,42.32,188.46Z"/><path class="cls-1" d="M317.72,188.46V144.32c1.12-.41,7.63-.41,8.7.15v44.05C325.48,188.87,318.32,188.87,317.72,188.46Z"/><path class="cls-1" d="M94.9,144.47h24.49L103,186.7h14.29v1.79H93.29l16-42.26H94.9Z"/><path class="cls-1" d="M126.18,144.47h24.49L134.23,186.7h14.3v1.79h-24l16-42.26H126.18Z"/><path class="cls-1" d="M396.18,188.77h-.83a41.47,41.47,0,0,0,4.26-9.83h-4.16v-2.1h4.88c3.16-10.75,10.94-34.1,10.94-34.1l14.49,45.8h-9.05l-2.81-9.6h-12C401.26,180.85,399.83,187.32,396.18,188.77Zm6.45-11.93h10.6l-5.29-17.69S404.72,169.72,402.63,176.84Z"/><path class="cls-1" d="M333,188.77h-.82a41.9,41.9,0,0,0,4.25-9.83h-4.17v-2.1h4.89c3.16-10.75,10.94-34.1,10.94-34.1l14.49,45.8h-9.05l-2.81-9.6h-12C338.06,180.85,336.64,187.32,333,188.77Zm6.45-11.93H350l-5.3-17.69S341.52,169.72,339.43,176.84Z"/><path class="cls-1" d="M254.46,188.77h-.84a41.08,41.08,0,0,0,4.25-9.83h-4.16v-2.1h4.89c3.16-10.75,10.94-34.1,10.94-34.1L284,188.54h-9l-2.81-9.6h-12C259.52,180.85,258.1,187.32,254.46,188.77Zm6.43-11.93h10.6l-5.29-17.69S263,169.72,260.89,176.84Z"/><path class="cls-1" d="M154.18,188.77h-.83a41.9,41.9,0,0,0,4.25-9.83h-4.16v-2.1h4.89c3.15-10.75,10.93-34.1,10.93-34.1l14.49,45.8h-9l-2.82-9.6h-12C159.25,180.85,157.82,187.32,154.18,188.77Zm6.44-11.93h10.6l-5.29-17.69S162.71,169.72,160.62,176.84Z"/><path class="cls-1" d="M58.81,188.77H58a41.47,41.47,0,0,0,4.26-9.83H58.07v-2.1H63c3.16-10.75,10.94-34.1,10.94-34.1l14.48,45.8h-9l-2.82-9.6h-12C63.88,180.85,62.46,187.32,58.81,188.77Zm6.44-11.93h10.6l-5.29-17.69S67.35,169.72,65.25,176.84Z"/><path class="cls-2" d="M29.68,141.09A21.08,21.08,0,0,0,17.84,136a62.43,62.43,0,0,0-11.27-.36,8.83,8.83,0,0,0-1.78.2v36l-4.79,0V174l4.78,0v14.52c.85.34,8.63.46,9.67,0V173.89c6.23,0,11.45-1.83,15.14-5.12s5.81-8.17,5.8-13.94A18.19,18.19,0,0,0,29.68,141.09Zm-15.22,30.7v-33.9c11.91.16,18.77,7,18.83,16.94C33.22,165.24,26.2,171.62,14.46,171.79Z"/><polyline class="cls-2" points="152.37 100.89 272 100.89 272 98.86 152.37 98.86"/><path class="cls-2" d="M248.21,43.37a14.65,14.65,0,0,0-3.59.45V30.16A14.39,14.39,0,0,0,239.2,18.9V13.51a13.51,13.51,0,1,0-27,0,13.51,13.51,0,1,0-27,0V18.9a14.36,14.36,0,0,0-5.43,11.26V43.82a14.65,14.65,0,0,0-3.59-.45,14.42,14.42,0,0,0-14.41,14.42v43.1h2.06V57.79a12.35,12.35,0,0,1,21.37-8.44,11.49,11.49,0,0,0-19.31,8.43v43.11h2.06V57.78a9.43,9.43,0,0,1,16.44-6.32A8.58,8.58,0,0,0,170,57.78v43.11h2.06V57.78a6.51,6.51,0,0,1,11.48-4.22,5.65,5.65,0,0,0-9.42,4.23v43.1h2.06V57.79a3.6,3.6,0,0,1,7.19-.29c0,.1,0,.19,0,.29v43.1h2.07V57.79a12.35,12.35,0,0,1,21.37-8.44,11.5,11.5,0,0,0-19.32,8.43v43.11h2.06V57.78A9.44,9.44,0,0,1,206,51.46a8.59,8.59,0,0,0-14.39,6.32v43.11h2.06V57.78a6.51,6.51,0,0,1,11.48-4.22,5.65,5.65,0,0,0-9.42,4.23v43.1h2.06V66.6A38.88,38.88,0,0,0,205,68.72v32.17H219.4V68.73a38.78,38.78,0,0,0,7.2-2.12v34.28h2.06V57.79a5.65,5.65,0,0,0-9.42-4.23,6.51,6.51,0,0,1,11.48,4.22v43.11h2.06V57.78a8.58,8.58,0,0,0-14.38-6.32,9.44,9.44,0,0,1,16.45,6.32v43.11h2.05V57.78a11.49,11.49,0,0,0-19.31-8.43A12.35,12.35,0,0,1,239,57.79v43.1H241V57.5a3.6,3.6,0,0,1,7.19.29v43.1h2.06V57.79a5.67,5.67,0,0,0-5.66-5.67,5.61,5.61,0,0,0-3.76,1.44,6.51,6.51,0,0,1,11.48,4.22v43.11h2.06V57.78A8.59,8.59,0,0,0,240,51.46a9.43,9.43,0,0,1,16.44,6.32v43.11h2.07V57.78a11.5,11.5,0,0,0-19.32-8.43,12.35,12.35,0,0,1,21.38,8.44v43.1h2.06V57.79A14.42,14.42,0,0,0,248.21,43.37Zm-46.84.45a14.61,14.61,0,0,0-3.6-.45,14.27,14.27,0,0,0-3.6.46V30.16a3.6,3.6,0,1,1,7.2,0Zm-3.6-19.32a5.66,5.66,0,0,0-5.66,5.66V44.53a14,14,0,0,0-2.06,1.09V30.16a6.51,6.51,0,0,1,11.48-4.22A5.63,5.63,0,0,0,197.77,24.5Zm-1.2-2.92A8.58,8.58,0,0,0,188,30.16v17a14.28,14.28,0,0,0-1,1c-.33-.37-.68-.72-1-1.06v-17a9.43,9.43,0,0,1,16.44-6.32A8.56,8.56,0,0,0,196.57,21.58Zm-1.2-2.92a11.5,11.5,0,0,0-11.5,11.5V45.6a14.92,14.92,0,0,0-2.06-1.08V30.16a12.35,12.35,0,0,1,21.38-8.43A11.49,11.49,0,0,0,195.37,18.66ZM195,15.77V13.51A6,6,0,0,1,204.86,9a5.31,5.31,0,0,0-8.11,4.51V16A14.77,14.77,0,0,0,195,15.77Zm3.86.74h0v-3a3.25,3.25,0,1,1,6.49,0V21l0,0A14.5,14.5,0,0,0,198.81,16.51Zm2.12-11a8,8,0,0,0-8,8v2.3a13.23,13.23,0,0,0-1.8.27V13.5a8.71,8.71,0,0,1,14.26-6.71A8.07,8.07,0,0,0,200.93,5.47Zm-1.12-2.74A10.78,10.78,0,0,0,189,13.5v3.19a15.37,15.37,0,0,0-1.79.83v-4a11.43,11.43,0,0,1,18.54-9A10.72,10.72,0,0,0,199.81,2.73Zm25.88-.67a11.47,11.47,0,0,1,11.45,11.45v4a15.51,15.51,0,0,0-1.8-.83V13.5a10.77,10.77,0,0,0-16.74-9A11.33,11.33,0,0,1,225.69,2.06Zm-1.12,2.73a8.72,8.72,0,0,1,8.71,8.71v2.58a13.47,13.47,0,0,0-1.8-.27v-2.3A8,8,0,0,0,219,6.79,8.7,8.7,0,0,1,224.57,4.79ZM222.31,8.2a5.31,5.31,0,0,0-2.79.8,6,6,0,0,1,9.9,4.51v2.26a15.25,15.25,0,0,0-1.8.21V13.51A5.31,5.31,0,0,0,222.31,8.2ZM219,21.05l0,0v-7.5a3.25,3.25,0,1,1,6.49,0v3A14.52,14.52,0,0,0,219,21.05Zm11.17,22.78a14.29,14.29,0,0,0-3.61-.46,14.73,14.73,0,0,0-3.6.45V30.16a3.61,3.61,0,0,1,7.21,0Zm4.12,1.79a14.47,14.47,0,0,0-2.06-1.09V30.16a5.65,5.65,0,0,0-9.42-4.22,6.47,6.47,0,0,1,5-2.3,6.53,6.53,0,0,1,6.52,6.52Zm4.12,1.56a14.84,14.84,0,0,0-1,1.06c-.32-.36-.67-.71-1-1v-17A8.59,8.59,0,0,0,222,23.84a9.44,9.44,0,0,1,16.45,6.32Zm4.12-2.66a14.92,14.92,0,0,0-2.06,1.08V30.16a11.5,11.5,0,0,0-19.32-8.43,12.35,12.35,0,0,1,21.38,8.43Z"/></g></g></svg>